<svg width="63" height="20" viewBox="0 0 63 20" fill="none" xmlns="http://www.w3.org/2000/svg">
<path d="M26.0842 14.9627C23.9157 14.9627 21.6261 13.545 20.5023 12.5166C19.2732 11.3914 15.8968 7.72892 15.8819 7.71257C13.6677 5.24222 10.6906 2.5 7.72068 2.5C4.14363 2.5 1.02351 4.97746 0.212158 8.25917C0.274077 8.0428 1.41139 5.03653 5.68023 5.03653C7.84882 5.03653 10.1384 6.45426 11.2621 7.4827C12.4913 8.60789 15.8676 12.2704 15.8826 12.2867C18.0967 14.7571 21.0738 17.4993 24.0445 17.4993C27.6215 17.4993 30.7409 15.0218 31.553 11.7401C31.4911 11.9565 30.3538 14.9627 26.085 14.9627H26.0842Z" fill="#29AAE1"/>
<path d="M15.8818 12.2874C15.874 12.2782 14.9018 11.2241 13.8115 10.074C13.2221 10.7736 12.3731 11.7266 11.3973 12.5813C9.57819 14.1755 8.39604 14.5101 7.71992 14.5101C5.16917 14.5101 3.08811 12.4867 3.08811 9.99996C3.08811 7.51326 5.16632 5.50552 7.71992 5.48986C7.81243 5.48986 7.92489 5.49911 8.06012 5.52331C7.2929 5.22866 6.47799 5.0365 5.67943 5.0365C1.41203 5.0365 0.27472 8.04134 0.212089 8.25914C0.0740178 8.81852 0 9.40071 0 9.99996C0 14.1357 3.41122 17.5 7.66513 17.5C9.43869 17.5 11.4251 16.5911 13.4705 14.7976C14.4377 13.9499 15.2761 13.0432 15.906 12.3145C15.8982 12.3052 15.8896 12.2966 15.8818 12.2874Z" fill="url(#paint0_linear_110_80)"/>
<path d="M15.8819 7.71257C15.8897 7.7218 16.8619 8.77585 17.9522 9.92597C18.5415 9.22637 19.3906 8.27339 20.3663 7.41861C22.1855 5.8244 23.3676 5.48989 24.0437 5.48989C26.5945 5.48989 28.6755 7.5133 28.6755 10C28.6755 12.4725 26.5974 14.4944 24.0437 14.5101C23.9512 14.5101 23.8388 14.5009 23.7035 14.4766C24.4708 14.7713 25.2857 14.9635 26.0842 14.9635C30.3523 14.9635 31.4896 11.9586 31.5523 11.7408C31.6903 11.1814 31.7644 10.5992 31.7644 10C31.7644 5.86425 28.2976 2.5 24.0437 2.5C22.2702 2.5 20.3393 3.40885 18.2931 5.20236C17.3259 6.05001 16.4875 6.95672 15.8577 7.68554C15.8655 7.69476 15.874 7.70331 15.8819 7.71257Z" fill="url(#paint1_linear_110_80)"/>
<path d="M37.2684 16V4.8H39.3484V16H37.2684ZM46.7618 16.16C45.9084 16.16 45.1138 16.0213 44.3778 15.744C43.6524 15.456 43.0178 15.056 42.4738 14.544C41.9404 14.0213 41.5244 13.408 41.2258 12.704C40.9271 12 40.7778 11.232 40.7778 10.4C40.7778 9.568 40.9271 8.8 41.2258 8.096C41.5244 7.392 41.9458 6.784 42.4898 6.272C43.0338 5.74933 43.6684 5.34933 44.3938 5.072C45.1191 4.784 45.9138 4.64 46.7778 4.64C47.6951 4.64 48.5324 4.8 49.2898 5.12C50.0471 5.42933 50.6871 5.89333 51.2098 6.512L49.8658 7.776C49.4604 7.33867 49.0071 7.01333 48.5058 6.8C48.0044 6.576 47.4604 6.464 46.8738 6.464C46.2871 6.464 45.7484 6.56 45.2578 6.752C44.7778 6.944 44.3564 7.216 43.9938 7.568C43.6418 7.92 43.3644 8.336 43.1618 8.816C42.9698 9.296 42.8738 9.824 42.8738 10.4C42.8738 10.976 42.9698 11.504 43.1618 11.984C43.3644 12.464 43.6418 12.88 43.9938 13.232C44.3564 13.584 44.7778 13.856 45.2578 14.048C45.7484 14.24 46.2871 14.336 46.8738 14.336C47.4604 14.336 48.0044 14.2293 48.5058 14.016C49.0071 13.792 49.4604 13.456 49.8658 13.008L51.2098 14.288C50.6871 14.896 50.0471 15.36 49.2898 15.68C48.5324 16 47.6898 16.16 46.7618 16.16ZM52.4028 16V4.8H57.0108C58.0028 4.8 58.8508 4.96 59.5548 5.28C60.2694 5.6 60.8188 6.05867 61.2028 6.656C61.5868 7.25333 61.7788 7.96267 61.7788 8.784C61.7788 9.60533 61.5868 10.3147 61.2028 10.912C60.8188 11.5093 60.2694 11.968 59.5548 12.288C58.8508 12.608 58.0028 12.768 57.0108 12.768H53.5548L54.4828 11.792V16H52.4028ZM54.4828 12.016L53.5548 11.008H56.9148C57.8321 11.008 58.5201 10.816 58.9788 10.432C59.4481 10.0373 59.6828 9.488 59.6828 8.784C59.6828 8.06933 59.4481 7.52 58.9788 7.136C58.5201 6.752 57.8321 6.56 56.9148 6.56H53.5548L54.4828 5.536V12.016Z" fill="#1D1D35"/>
<defs>
<linearGradient id="paint0_linear_110_80" x1="11.7226" y1="16.5185" x2="1.27609" y2="5.70053" gradientUnits="userSpaceOnUse">
<stop offset="0.22" stop-color="#EC1E79"/>
<stop offset="0.89" stop-color="#522784"/>
</linearGradient>
<linearGradient id="paint1_linear_110_80" x1="20.0347" y1="3.48785" x2="30.4812" y2="14.3059" gradientUnits="userSpaceOnUse">
<stop offset="0.21" stop-color="#F05A24"/>
<stop offset="0.68" stop-color="#FAAF3B"/>
</linearGradient>
</defs>
</svg>
