<svg width="99" height="99" viewBox="0 0 99 99" fill="none" xmlns="http://www.w3.org/2000/svg">
<path d="M74.5588 67.6526L74.0994 66.8606L61.3086 59.5109L59.5108 58.4813L46.9576 51.2741L43.7737 49.4446C42.3164 43.9085 39.7583 38.4991 36.0992 33.2244C34.2143 30.5158 32.1709 28.1239 29.9692 26.0726C27.8862 24.1164 25.6448 22.4611 23.2768 21.0989C21.5423 20.101 19.887 19.3486 18.303 18.8417C14.8182 17.717 11.6898 17.7646 8.93363 19.008L7.90403 19.5228C3.69059 21.9384 1.59179 26.6033 1.60763 33.5174C1.62347 40.4316 3.75395 47.5279 7.98323 54.7906C12.2204 62.0611 17.3605 67.423 23.3956 70.8919C28.0367 73.561 32.2264 74.448 35.9646 73.553C39.6949 72.6581 42.3164 70.1554 43.8133 66.0449L45.0805 66.7735L52.3432 79.2317L59.5662 75.0895L68.6346 88.4822L81.2671 79.1604L74.5588 67.6526ZM32.5273 57.9982C32.1155 58.4971 31.6165 58.909 31.0463 59.2337C28.9396 60.4375 26.3814 60.1762 23.3639 58.4417C20.3464 56.7072 17.7803 54.0223 15.6577 50.395C13.5431 46.7597 12.4818 43.2115 12.4739 39.7584C12.466 36.2974 13.5114 33.961 15.6181 32.7571C16.3705 32.3294 17.1863 32.076 18.0654 32.0206C19.6256 31.9334 21.376 32.4324 23.3084 33.5412C26.326 35.2757 28.892 37.9606 30.9988 41.5879H31.0067C31.1809 41.8889 31.3393 42.1819 31.4977 42.475C31.5056 42.4829 31.5056 42.4908 31.5136 42.4987C33.2956 45.8172 34.1905 49.0565 34.1984 52.2324C34.2064 54.751 33.644 56.6755 32.5273 57.9982Z" stroke="white" stroke-width="0.768" stroke-linecap="round" stroke-linejoin="round"/>
<path d="M97.1071 71.2404L84.4747 80.5622L68.6346 88.4823L81.2671 79.1604L82.9541 78.313L97.1071 71.2404Z" fill="#CCFBE5" stroke="white" stroke-width="0.768" stroke-linecap="round" stroke-linejoin="round"/>
<path d="M97.1071 71.2404L82.9541 78.313L81.2671 79.1604L74.5587 67.6526L74.0994 66.8606L89.9395 58.9406L97.1071 71.2404Z" stroke="white" stroke-width="0.768" stroke-linecap="round" stroke-linejoin="round"/>
<path d="M34.1984 52.2324C34.2063 54.751 33.644 56.6755 32.5272 57.9982C32.1154 58.4971 31.6164 58.909 31.0462 59.2337C28.9395 60.4375 26.3813 60.1762 23.3638 58.4417C20.3463 56.7072 17.7802 54.0223 15.6576 50.395C13.543 46.7597 12.4817 43.2115 12.4738 39.7584C12.4659 36.2974 13.5113 33.961 15.618 32.7571C16.3704 32.3294 17.1862 32.076 18.0653 32.0206C19.6256 31.9334 21.3759 32.4324 23.3084 33.5412C26.3259 35.2757 28.892 37.9606 30.9987 41.5879H31.0066C31.165 41.8889 31.3234 42.1819 31.4976 42.475C31.5056 42.4829 31.5056 42.4908 31.5135 42.4987C33.2955 45.8172 34.1904 49.0565 34.1984 52.2324Z" fill="#CCFBE5"/>
<path d="M89.9395 58.9407L74.0995 66.8607L61.3087 59.5109L59.5108 58.4813L46.9576 51.2741L43.7738 49.4446L49.896 46.3875L59.6138 41.5246L89.9395 58.9407Z" stroke="white" stroke-width="0.768" stroke-linecap="round" stroke-linejoin="round"/>
<path d="M59.6137 41.5246L49.8958 46.3874L43.7737 49.4446C42.3164 43.9085 39.7582 38.4991 36.0992 33.2244C34.2142 30.5158 32.1709 28.1239 29.9691 26.0726C27.8862 24.1164 25.6448 22.4611 23.2767 21.0989C21.5422 20.101 19.887 19.3486 18.303 18.8417C14.8182 17.717 11.6898 17.7646 8.93359 19.008L23.744 11.6028C27.9574 9.18721 33.0817 9.70993 39.1167 13.1789C44.0034 15.9826 48.2802 20.0297 51.9392 25.3044C55.5982 30.5791 58.1564 35.9885 59.6137 41.5246Z" stroke="white" stroke-width="0.768" stroke-linecap="round" stroke-linejoin="round"/>
</svg>
