<svg width="92" height="92" viewBox="0 0 92 92" fill="none" xmlns="http://www.w3.org/2000/svg">
<path d="M49.7719 57.5C49.7719 58.3323 50.0429 59.1421 50.5438 59.8069C51.0447 60.4716 51.7484 60.9553 52.5485 61.1848C53.3486 61.4142 54.2017 61.3771 54.9788 61.0788C55.7559 60.7806 56.4148 60.2375 56.8559 59.5316L67.16 49.2315C67.5159 48.8753 67.7981 48.4526 67.9906 47.9873C68.1832 47.5221 68.2822 47.0235 68.282 46.52C68.2818 46.0165 68.1824 45.5179 67.9896 45.0528C67.7968 44.5877 67.5142 44.1651 67.158 43.8092C66.8019 43.4533 66.3791 43.1711 65.9139 42.9785C65.4486 42.786 64.95 42.687 64.4465 42.6872C63.943 42.6874 63.4445 42.7867 62.9794 42.9796C62.5143 43.1724 62.0917 43.455 61.7358 43.8111L57.4424 48.1045V19.1666C57.4424 18.15 57.0386 17.175 56.3197 16.4561C55.6008 15.7372 54.6258 15.3333 53.6091 15.3333C52.5925 15.3333 51.6174 15.7372 50.8985 16.4561C50.1796 17.175 49.7758 18.15 49.7758 19.1666L49.7719 57.5ZM42.2241 34.5C42.2241 33.6676 41.9532 32.8579 41.4523 32.1931C40.9514 31.5283 40.2477 31.0446 39.4476 30.8152C38.6475 30.5857 37.7944 30.6229 37.0173 30.9211C36.2402 31.2194 35.5813 31.7625 35.1401 32.4683L24.8399 42.7685C24.4738 43.1221 24.1818 43.5451 23.9809 44.0128C23.78 44.4804 23.6742 44.9835 23.6698 45.4924C23.6654 46.0014 23.7624 46.5062 23.9551 46.9773C24.1479 47.4484 24.4325 47.8764 24.7924 48.2363C25.1524 48.5962 25.5804 48.8809 26.0515 49.0736C26.5226 49.2664 27.0273 49.3634 27.5363 49.3589C28.0453 49.3545 28.5483 49.2488 29.016 49.0479C29.4837 48.847 29.9067 48.5549 30.2603 48.1888L34.5575 43.8955V72.8333C34.5575 73.85 34.9613 74.825 35.6802 75.5439C36.3991 76.2628 37.3741 76.6666 38.3908 76.6666C39.4074 76.6666 40.3825 76.2628 41.1014 75.5439C41.8202 74.825 42.2241 73.85 42.2241 72.8333V34.5Z" fill="#FFE454"/>
</svg>
