<svg width="20" height="20" viewBox="0 0 20 20" fill="none" xmlns="http://www.w3.org/2000/svg">
<path d="M10.005 20.003C4.48201 20.003 0.00500488 15.526 0.00500488 10.003C0.00500488 4.47999 4.48201 0.00299072 10.005 0.00299072C15.528 0.00299072 20.005 4.47999 20.005 10.003C20.005 15.526 15.528 20.003 10.005 20.003ZM10.005 18.003C12.1267 18.003 14.1616 17.1601 15.6619 15.6598C17.1621 14.1596 18.005 12.1247 18.005 10.003C18.005 7.88126 17.1621 5.84643 15.6619 4.34614C14.1616 2.84585 12.1267 2.00299 10.005 2.00299C7.88327 2.00299 5.84844 2.84585 4.34815 4.34614C2.84786 5.84643 2.005 7.88126 2.005 10.003C2.005 12.1247 2.84786 14.1596 4.34815 15.6598C5.84844 17.1601 7.88327 18.003 10.005 18.003ZM5.005 7.00299L8.005 3.50299L11.005 7.00299H9.005V11.003H7.005V7.00299H5.005ZM15.005 13.003L12.005 16.503L9.005 13.003H11.005V9.00299H13.005V13.003H15.005Z" fill="white"/>
</svg>
