<svg width="103" height="22" viewBox="0 0 103 22" fill="none" xmlns="http://www.w3.org/2000/svg">
<path d="M0 21.6422V3.74994L2.781 0V11.418H10.3515V3.74994H13.1325V21.6422H10.3515V13.9229H2.781V21.6422H0Z" fill="white"/>
<path d="M22.7952 22C21.5077 22 20.3833 21.7359 19.4219 21.2076C18.4606 20.6623 17.7053 19.9041 17.1559 18.9328C16.6238 17.9444 16.3577 16.8027 16.3577 15.5077V15.201C16.3577 13.8889 16.6238 12.7472 17.1559 11.7759C17.6881 10.7875 18.4263 10.0293 19.3704 9.50101C20.3318 8.95572 21.439 8.68308 22.6922 8.68308C23.911 8.68308 24.9754 8.95572 25.8852 9.50101C26.8122 10.0293 27.5332 10.7705 28.0482 11.7248C28.5632 12.679 28.8207 13.7951 28.8207 15.0732V16.07H19.0614C19.0958 17.1776 19.4649 18.0637 20.1687 18.7283C20.8897 19.3758 21.7824 19.6996 22.8467 19.6996C23.8424 19.6996 24.5891 19.4781 25.0869 19.035C25.6019 18.592 25.9968 18.0808 26.2714 17.5014L28.4602 18.626C28.2199 19.1032 27.8679 19.6059 27.4044 20.1341C26.9581 20.6623 26.3659 21.1054 25.6277 21.4632C24.8895 21.8211 23.9454 22 22.7952 22ZM19.0872 14.0507H26.1169C26.0483 13.0965 25.7049 12.3552 25.0869 11.827C24.4689 11.2817 23.6621 11.0091 22.6664 11.0091C21.6708 11.0091 20.8554 11.2817 20.2202 11.827C19.6022 12.3552 19.2245 13.0965 19.0872 14.0507Z" fill="white"/>
<path d="M32.0133 21.6422V9.04093H34.614V10.5234H35.026C35.232 9.99518 35.5582 9.61177 36.0045 9.37321C36.468 9.11761 37.0345 8.9898 37.704 8.9898H39.2233V11.3669H37.601C36.7427 11.3669 36.0389 11.6055 35.4895 12.0826C34.9402 12.5427 34.6655 13.2584 34.6655 14.2297V21.6422H32.0133Z" fill="white"/>
<path d="M45.559 22C44.6492 22 43.8337 21.8466 43.1127 21.5399C42.4089 21.2332 41.8424 20.7816 41.4132 20.1852C41.0012 19.5888 40.7952 18.8646 40.7952 18.0126C40.7952 17.1435 41.0012 16.4279 41.4132 15.8655C41.8424 15.2862 42.4175 14.8516 43.1385 14.5619C43.8767 14.2723 44.7092 14.1274 45.6362 14.1274H49.4987V13.3095C49.4987 12.5768 49.2756 11.9889 48.8292 11.5458C48.3829 11.1028 47.6962 10.8813 46.7692 10.8813C45.8594 10.8813 45.1642 11.0943 44.6835 11.5203C44.2028 11.9463 43.8852 12.5001 43.7307 13.1817L41.2587 12.3893C41.4647 11.7077 41.7909 11.0943 42.2372 10.549C42.7007 9.98666 43.3102 9.53509 44.0655 9.19429C44.8208 8.85348 45.7307 8.68308 46.795 8.68308C48.443 8.68308 49.7391 9.10057 50.6832 9.93554C51.6274 10.7705 52.0995 11.9548 52.0995 13.4884V18.6772C52.0995 19.1884 52.3398 19.444 52.8205 19.444H56.6144L59.3942 21.6422H51.9192C51.3184 21.6422 50.8292 21.4888 50.4515 21.1821C50.0738 20.8753 49.885 20.4579 49.885 19.9296V19.8529H49.4987C49.3614 20.1085 49.1554 20.4067 48.8807 20.7475C48.6061 21.0883 48.2027 21.3866 47.6705 21.6422C47.1383 21.8807 46.4345 22 45.559 22ZM45.9452 19.8274C47.0096 19.8274 47.8679 19.5292 48.5202 18.9328C49.1726 18.3193 49.4987 17.4843 49.4987 16.4279V16.1722H45.7907C45.0869 16.1722 44.5204 16.3256 44.0912 16.6323C43.6621 16.922 43.4475 17.3565 43.4475 17.9359C43.4475 18.5153 43.6707 18.9754 44.117 19.3162C44.5633 19.657 45.1727 19.8274 45.9452 19.8274Z" fill="white"/>
<path d="M61.4321 22C60.3849 22 59.415 21.7444 58.5223 21.2332C57.6296 20.722 56.9086 19.9893 56.3593 19.035C55.8271 18.0637 55.5611 16.8965 55.5611 15.5332V15.1498C55.5611 13.8037 55.8271 12.6449 56.3593 11.6736C56.8915 10.7023 57.6039 9.9611 58.4966 9.44989C59.3892 8.93868 60.3677 8.68308 61.4321 8.68308C62.2561 8.68308 62.9427 8.78532 63.4921 8.9898C64.0586 9.19429 64.5221 9.45841 64.8826 9.78217C65.2431 10.0889 65.5177 10.4127 65.7066 10.7535H66.1186V3.74994H68.7708V21.6422H66.1701V19.8529H65.7581C65.4319 20.3982 64.9341 20.8924 64.2646 21.3354C63.6122 21.7785 62.6681 22 61.4321 22ZM62.1788 19.6996C63.329 19.6996 64.2731 19.3332 65.0113 18.6005C65.7666 17.8678 66.1443 16.8198 66.1443 15.4566V15.2265C66.1443 13.8803 65.7752 12.8409 65.0371 12.1082C64.2989 11.3754 63.3461 11.0091 62.1788 11.0091C61.0458 11.0091 60.1016 11.3754 59.3463 12.1082C58.6081 12.8409 58.2391 13.8803 58.2391 15.2265V15.4566C58.2391 16.8198 58.6081 17.8678 59.3463 18.6005C60.1016 19.3332 61.0458 19.6996 62.1788 19.6996Z" fill="white"/>
<path d="M78.4947 22C77.2072 22 76.0827 21.7359 75.1214 21.2076C74.1601 20.6623 73.4047 19.9041 72.8554 18.9328C72.3232 17.9444 72.0572 16.8027 72.0572 15.5077V15.201C72.0572 13.8889 72.3232 12.7472 72.8554 11.7759C73.3876 10.7875 74.1257 10.0293 75.0699 9.50101C76.0312 8.95572 77.1385 8.68308 78.3916 8.68308C79.6105 8.68308 80.6748 8.95572 81.5846 9.50101C82.5117 10.0293 83.2327 10.7705 83.7477 11.7248C84.2626 12.679 84.5201 13.7951 84.5201 15.0732V16.07H74.7609C74.7952 17.1776 75.1643 18.0637 75.8682 18.7283C76.5891 19.3758 77.4818 19.6996 78.5462 19.6996C79.5418 19.6996 80.2886 19.4781 80.7864 19.035C81.3014 18.592 81.6962 18.0808 81.9709 17.5014L84.1597 18.626C83.9193 19.1032 83.5674 19.6059 83.1039 20.1341C82.6576 20.6623 82.0653 21.1054 81.3271 21.4632C80.589 21.8211 79.6448 22 78.4947 22ZM74.7867 14.0507H81.8164C81.7477 13.0965 81.4044 12.3552 80.7864 11.827C80.1684 11.2817 79.3616 11.0091 78.3659 11.0091C77.3702 11.0091 76.5548 11.2817 75.9196 11.827C75.3017 12.3552 74.924 13.0965 74.7867 14.0507Z" fill="white"/>
<path d="M85.8014 21.6422L90.6424 15.2776L85.9044 9.04093H89.0202L92.3419 13.5651H92.7539L96.0757 9.04093L103 3.74994L94.4534 15.2776L99.2944 21.6422H96.1272L92.7539 17.0157H92.3419L88.9687 21.6422H85.8014Z" fill="white"/>
</svg>
