<svg width="41" height="21" viewBox="0 0 41 21" fill="none" xmlns="http://www.w3.org/2000/svg">
<path d="M33.6681 16.8086C30.869 16.8086 27.9138 14.9787 26.4632 13.6513C24.8767 12.1989 20.5187 7.47153 20.4994 7.45043C17.6415 4.26181 13.7988 0.72229 9.96532 0.72229C5.34824 0.72229 1.32093 3.92008 0.273682 8.15595C0.353604 7.87667 1.82159 3.99633 7.33161 3.99633C10.1307 3.99633 13.086 5.82626 14.5365 7.15372C16.123 8.60606 20.481 13.3334 20.5003 13.3545C23.3582 16.5431 27.2009 20.0826 31.0353 20.0826C35.6524 20.0826 39.6788 16.8848 40.7269 12.649C40.647 12.9283 39.179 16.8086 33.669 16.8086H33.6681Z" fill="#29AAE1"/>
<path d="M20.4994 13.3553C20.4894 13.3434 19.2345 11.9829 17.8272 10.4984C17.0665 11.4014 15.9706 12.6314 14.7111 13.7347C12.3631 15.7925 10.8372 16.2243 9.9645 16.2243C6.67211 16.2243 3.98598 13.6125 3.98598 10.4028C3.98598 7.1931 6.66843 4.6016 9.9645 4.58139C10.0839 4.58139 10.2291 4.59333 10.4036 4.62457C9.41333 4.24425 8.36148 3.99622 7.33073 3.99622C1.82258 3.99622 0.354595 7.87471 0.273755 8.15584C0.0955386 8.87787 0 9.62933 0 10.4028C0 15.7411 4.40304 20.0834 9.89378 20.0834C12.183 20.0834 14.7469 18.9103 17.3871 16.5954C18.6355 15.5013 19.7177 14.3309 20.5307 13.3903C20.5206 13.3783 20.5096 13.3673 20.4994 13.3553Z" fill="url(#paint0_linear_118_8)"/>
<path d="M20.4995 7.45043C20.5096 7.46234 21.7644 8.82285 23.1718 10.3074C23.9324 9.40437 25.0284 8.1743 26.2878 7.071C28.6359 5.01326 30.1617 4.5815 31.0344 4.5815C34.3269 4.5815 37.013 7.19321 37.013 10.4029C37.013 13.5943 34.3305 16.2041 31.0344 16.2244C30.915 16.2244 30.7699 16.2124 30.5953 16.1812C31.5856 16.5615 32.6375 16.8095 33.6682 16.8095C39.1773 16.8095 40.6453 12.931 40.7261 12.6499C40.9043 11.9279 40.9999 11.1764 40.9999 10.4029C40.9999 5.0647 36.5251 0.72229 31.0344 0.72229C28.7452 0.72229 26.2529 1.89539 23.6119 4.21037C22.3634 5.30447 21.2812 6.47481 20.4683 7.41553C20.4783 7.42744 20.4894 7.43847 20.4995 7.45043Z" fill="url(#paint1_linear_118_8)"/>
<defs>
<linearGradient id="paint0_linear_118_8" x1="15.131" y1="18.8166" x2="1.64712" y2="4.85331" gradientUnits="userSpaceOnUse">
<stop offset="0.22" stop-color="#EC1E79"/>
<stop offset="0.89" stop-color="#522784"/>
</linearGradient>
<linearGradient id="paint1_linear_118_8" x1="25.8597" y1="1.99737" x2="39.3436" y2="15.9607" gradientUnits="userSpaceOnUse">
<stop offset="0.21" stop-color="#F05A24"/>
<stop offset="0.68" stop-color="#FAAF3B"/>
</linearGradient>
</defs>
</svg>
