<svg width="24" height="24" viewBox="0 0 24 24" fill="none" xmlns="http://www.w3.org/2000/svg">
<path d="M12.0049 22.003C6.48188 22.003 2.00488 17.526 2.00488 12.003C2.00488 6.47999 6.48188 2.00299 12.0049 2.00299C17.5279 2.00299 22.0049 6.47999 22.0049 12.003C22.0049 17.526 17.5279 22.003 12.0049 22.003ZM12.0049 20.003C14.1266 20.003 16.1614 19.1601 17.6617 17.6598C19.162 16.1596 20.0049 14.1247 20.0049 12.003C20.0049 9.88126 19.162 7.84643 17.6617 6.34614C16.1614 4.84585 14.1266 4.00299 12.0049 4.00299C9.88315 4.00299 7.84832 4.84585 6.34803 6.34614C4.84774 7.84643 4.00488 9.88126 4.00488 12.003C4.00488 14.1247 4.84774 16.1596 6.34803 17.6598C7.84832 19.1601 9.88315 20.003 12.0049 20.003ZM7.00488 9.00299L10.0049 5.50299L13.0049 9.00299H11.0049V13.003H9.00488V9.00299H7.00488ZM17.0049 15.003L14.0049 18.503L11.0049 15.003H13.0049V11.003H15.0049V15.003H17.0049Z" fill="#00AA7B"/>
</svg>
