<svg width="99" height="99" viewBox="0 0 99 99" fill="none" xmlns="http://www.w3.org/2000/svg">
<path d="M71.4837 56.5768C70.1401 52.2456 68.4429 48.0557 66.3656 44.0162C65.738 42.7787 65.0663 41.5589 64.368 40.3479C63.4929 38.8364 62.5647 37.3514 61.5924 35.9106C59.2677 32.4279 56.669 29.1485 53.8051 26.0813C49.7567 21.7323 45.4254 18.232 40.8201 15.5802C36.4447 13.0522 32.3167 11.576 28.4451 11.1517C28.2418 11.1252 28.0474 11.1075 27.8441 11.0898C24.3968 10.807 21.3295 11.2578 18.6512 12.4599L17.2722 13.1494C14.2757 14.8642 11.9068 17.5337 10.1567 21.1755C8.40649 24.8084 7.54016 29.2723 7.54016 34.5581C7.54016 39.844 8.40649 45.3067 10.1567 50.9639C11.9068 56.621 14.2757 62.0306 17.2722 67.2016C20.2688 72.3638 23.7869 77.1193 27.8441 81.4594C31.8925 85.8083 36.2148 89.3086 40.8201 91.9692C45.4254 94.621 49.7567 96.1237 53.8051 96.4507C57.8535 96.7866 61.3714 96.0972 64.368 94.3912C67.0286 92.8797 69.1942 90.5991 70.8737 87.5585C71.0858 87.1784 71.2892 86.7806 71.4837 86.374C73.2338 82.7323 74.1088 78.2684 74.1088 72.9914C74.1088 67.7143 73.2338 62.234 71.4837 56.5768ZM33.2095 67.3784C32.573 67.7408 31.7776 67.6436 30.8318 67.1044C29.8948 66.5564 29.0992 65.7343 28.4628 64.6382C27.8263 63.5333 27.5082 62.4461 27.5082 61.3589C27.5082 60.2716 27.8263 59.5556 28.4628 59.1932C29.0992 58.8308 29.8948 58.9192 30.8318 59.4673C31.7776 60.0064 32.573 60.8285 33.2095 61.9334C33.8459 63.0295 34.1641 64.1256 34.1641 65.2039C34.1641 66.2823 33.8459 67.0072 33.2095 67.3784ZM44.1437 71.1086C44.126 72.1163 43.8079 72.7969 43.1891 73.1416C42.5527 73.504 41.7659 73.4156 40.8201 72.8676C39.8743 72.3196 39.0877 71.4975 38.4513 70.4015C37.8148 69.2965 37.4965 68.2093 37.4965 67.1309C37.4965 66.0525 37.8148 65.3189 38.4513 64.9564C38.6457 64.8504 38.8578 64.7797 39.0788 64.7531C39.5914 64.6913 40.166 64.8504 40.8201 65.2305C41.7659 65.7697 42.5527 66.6006 43.1891 67.6966C43.8344 68.8015 44.1525 69.8888 44.1525 70.9672C44.1525 71.0114 44.1525 71.0644 44.1437 71.1086ZM53.1774 78.9048C52.983 79.0109 52.7797 79.0816 52.5587 79.1081C52.0548 79.17 51.4626 79.0109 50.8085 78.6308C49.8627 78.0916 49.076 77.2696 48.4307 76.1647C48.2097 75.7846 48.033 75.4045 47.8915 75.0332C47.6087 74.3173 47.4761 73.6013 47.4761 72.8941C47.4761 71.8069 47.7943 71.0909 48.4307 70.7197C49.076 70.3573 49.8627 70.4545 50.8085 70.9937C51.7455 71.5417 52.541 72.3638 53.1774 73.4598C53.8139 74.5648 54.1322 75.652 54.1322 76.7392C54.1322 77.8264 53.8139 78.5424 53.1774 78.9048ZM54.4238 49.5584L50.1455 52.0246L45.5933 54.641L37.3286 59.3965L28.5071 44.1753L25.5105 39.0131L26.7745 38.2883L30.1688 36.3525L37.2403 48.5507L49.7213 41.4439L51.3919 40.4893L51.8339 41.2583L56.0502 48.6214L54.4238 49.5584Z" stroke="white" stroke-width="0.857143" stroke-linecap="round" stroke-linejoin="round"/>
<path d="M34.1638 65.204C34.1638 66.2912 33.8457 67.0072 33.2093 67.3784C32.5728 67.7408 31.7773 67.6436 30.8315 67.1044C29.8945 66.5564 29.099 65.7343 28.4626 64.6382C27.8261 63.5333 27.5079 62.4461 27.5079 61.3589C27.5079 60.2716 27.8261 59.5557 28.4626 59.1933C29.099 58.8308 29.8945 58.9192 30.8315 59.4673C31.7773 60.0065 32.5728 60.8285 33.2093 61.9334C33.8457 63.0295 34.1638 64.1256 34.1638 65.204Z" fill="#CCFBE5" stroke="white" stroke-width="0.857143" stroke-linecap="round" stroke-linejoin="round"/>
<path d="M51.8342 41.2583L50.1106 42.1157L37.2407 48.5507L49.7218 41.4439L51.3922 40.4893L51.8342 41.2583Z" fill="#CCFBE5" stroke="white" stroke-width="0.857143" stroke-linecap="round" stroke-linejoin="round"/>
<path d="M54.1326 76.7392C54.1326 77.8176 53.8143 78.5424 53.1779 78.9049C52.9834 79.0109 52.7801 79.0816 52.5592 79.1082C52.0553 79.17 51.4632 79.0109 50.8091 78.6308C49.8633 78.0916 49.0765 77.2696 48.4312 76.1647C48.2102 75.7846 48.0334 75.4045 47.892 75.0332C47.6092 74.3173 47.4766 73.6013 47.4766 72.8941C47.4766 71.8069 47.7948 71.0909 48.4312 70.7197C49.0765 70.3573 49.8633 70.4545 50.8091 70.9937C51.746 71.5417 52.5415 72.3638 53.1779 73.4599C53.8143 74.5648 54.1326 75.652 54.1326 76.7392Z" fill="#CCFBE5" stroke="white" stroke-width="0.857143" stroke-linecap="round" stroke-linejoin="round"/>
<path d="M44.1531 70.9672C44.1531 70.9672 44.1531 71.0643 44.1442 71.1085C44.1265 72.1162 43.8084 72.7969 43.1897 73.1417C42.5532 73.5041 41.7664 73.4157 40.8206 72.8676C39.8748 72.3196 39.0882 71.4975 38.4518 70.4014C37.8154 69.2965 37.4971 68.2092 37.4971 67.1308C37.4971 66.0525 37.8154 65.3188 38.4518 64.9564C38.6463 64.8503 38.8583 64.7797 39.0793 64.7532C39.592 64.6913 40.1665 64.8503 40.8206 65.2304C41.7664 65.7696 42.5532 66.6006 43.1897 67.6966C43.8349 68.8016 44.1531 69.8888 44.1531 70.9672Z" fill="#CCFBE5" stroke="white" stroke-width="0.857143" stroke-linecap="round" stroke-linejoin="round"/>
<path d="M56.0501 48.6215L54.4237 49.5584L50.1455 52.0245L45.5933 54.641L37.3285 59.3965L28.507 44.1752L25.5105 39.0131L26.7744 38.2883L30.1688 36.3525L37.2402 48.5508L50.1101 42.1158L51.8338 41.2583L56.0501 48.6215Z" fill="#CCFBE5" stroke="white" stroke-width="0.857143" stroke-linecap="round" stroke-linejoin="round"/>
<path d="M91.7876 64.152C91.7876 69.4291 90.9125 73.893 89.1623 77.5348C87.4122 81.1677 85.0432 83.846 82.0467 85.552L80.6678 86.2415L64.3682 94.3912C67.0288 92.8797 69.1943 90.5992 70.8738 87.5585C71.0859 87.1784 71.2893 86.7807 71.4838 86.3741C73.234 82.7323 74.109 78.2684 74.109 72.9913C74.109 67.7142 73.234 62.234 71.4838 56.5768C70.1402 52.2456 68.4431 48.0557 66.3658 44.0161C65.7382 42.7786 65.0665 41.5588 64.3682 40.3478C63.4931 38.8363 62.5648 37.3514 61.5925 35.9106C59.2678 32.4279 56.6691 29.1485 53.8052 26.0813C49.7568 21.7324 45.4255 18.232 40.8202 15.5802C36.4448 13.0522 32.3168 11.5759 28.4452 11.1517C28.2419 11.1251 28.0475 11.1075 27.8442 11.0898C24.3969 10.8069 21.3297 11.2578 18.6514 12.46L34.9509 4.3101C37.9474 2.60412 41.4656 1.91464 45.5228 2.25053C49.5712 2.58642 53.8935 4.08028 58.4988 6.74091C63.104 9.39273 67.4354 12.8931 71.4838 17.242C75.5322 21.5821 79.0502 26.3376 82.0467 31.5085C85.0432 36.6707 87.4122 42.0804 89.1623 47.7376C90.9125 53.3947 91.7876 58.8661 91.7876 64.152Z" stroke="white" stroke-width="0.857143" stroke-linecap="round" stroke-linejoin="round"/>
</svg>
