<svg width="46" height="62" viewBox="0 0 46 62" fill="none" xmlns="http://www.w3.org/2000/svg">
<path d="M26.7719 42.5C26.7719 43.3323 27.0429 44.1421 27.5438 44.8069C28.0447 45.4716 28.7484 45.9553 29.5485 46.1848C30.3486 46.4142 31.2017 46.3771 31.9788 46.0788C32.7559 45.7806 33.4148 45.2375 33.8559 44.5316L44.16 34.2315C44.5159 33.8753 44.7981 33.4526 44.9906 32.9873C45.1832 32.5221 45.2822 32.0235 45.282 31.52C45.2818 31.0165 45.1824 30.5179 44.9896 30.0528C44.7968 29.5877 44.5142 29.1651 44.158 28.8092C43.8019 28.4533 43.3791 28.1711 42.9139 27.9785C42.4486 27.786 41.95 27.687 41.4465 27.6872C40.943 27.6874 40.4445 27.7867 39.9794 27.9796C39.5143 28.1724 39.0917 28.455 38.7358 28.8111L34.4424 33.1045V4.16665C34.4424 3.14998 34.0386 2.17496 33.3197 1.45607C32.6008 0.737182 31.6258 0.333313 30.6091 0.333313C29.5925 0.333313 28.6174 0.737182 27.8985 1.45607C27.1796 2.17496 26.7758 3.14998 26.7758 4.16665L26.7719 42.5ZM19.2241 19.5C19.2241 18.6676 18.9532 17.8579 18.4523 17.1931C17.9514 16.5283 17.2477 16.0446 16.4476 15.8152C15.6475 15.5857 14.7944 15.6229 14.0173 15.9211C13.2402 16.2194 12.5813 16.7625 12.1401 17.4683L1.83995 27.7685C1.47383 28.1221 1.1818 28.5451 0.980894 29.0128C0.779993 29.4804 0.674245 29.9835 0.669822 30.4924C0.6654 31.0014 0.76239 31.5062 0.955134 31.9773C1.14788 32.4484 1.43251 32.8764 1.79244 33.2363C2.15236 33.5962 2.58036 33.8809 3.05146 34.0736C3.52256 34.2664 4.02733 34.3634 4.53632 34.3589C5.04531 34.3545 5.54832 34.2488 6.016 34.0479C6.48368 33.847 6.90667 33.5549 7.26028 33.1888L11.5575 28.8955V57.8333C11.5575 58.85 11.9613 59.825 12.6802 60.5439C13.3991 61.2628 14.3741 61.6666 15.3908 61.6666C16.4074 61.6666 17.3825 61.2628 18.1014 60.5439C18.8202 59.825 19.2241 58.85 19.2241 57.8333V19.5Z" fill="#FFE454"/>
</svg>
