<svg width="24" height="24" viewBox="0 0 24 24" fill="none" xmlns="http://www.w3.org/2000/svg">
<g clip-path="url(#clip0_111_146)">
<rect width="24" height="24" rx="10" fill="white"/>
<path d="M0 -4H32V28H0V-4Z" fill="#CCFBE5"/>
<path d="M10.1004 5.1382C11.0232 4.95437 11.976 4.95393 12.8989 5.1369C12.9604 5.52245 13.1126 5.88988 13.3441 6.21188C13.5756 6.53388 13.8806 6.80217 14.2363 6.9968C14.5917 7.1921 14.9889 7.30877 15.3983 7.33814C15.8077 7.3675 16.2188 7.3088 16.6011 7.16641C17.2293 7.8345 17.7051 8.61887 17.9986 9.47016C17.678 9.71359 17.4193 10.0225 17.2417 10.374C17.064 10.7255 16.972 11.1104 16.9725 11.5003C16.9725 12.3217 17.3734 13.0541 18 13.5305C17.7047 14.3811 17.2283 15.1648 16.6004 15.8329C16.2182 15.6906 15.8072 15.632 15.398 15.6614C14.9887 15.6907 14.5916 15.8073 14.2363 16.0026C13.8809 16.1971 13.5761 16.4652 13.3447 16.787C13.1133 17.1088 12.9612 17.4759 12.8996 17.8612C11.9769 18.0454 11.0241 18.0463 10.1011 17.8638C10.0399 17.4778 9.88786 17.11 9.65632 16.7877C9.42477 16.4653 9.11967 16.1967 8.76373 16.0019C8.40827 15.8067 8.01106 15.6901 7.60163 15.6609C7.19221 15.6316 6.78112 15.6904 6.39892 15.8329C5.77067 15.1647 5.29484 14.3801 5.00137 13.5285C5.32178 13.2852 5.5804 12.9765 5.75804 12.6253C5.93567 12.2741 6.02776 11.8893 6.02747 11.4997C6.0278 11.1097 5.9356 10.7246 5.75772 10.3732C5.57983 10.0217 5.32084 9.71281 5 9.46951C5.29529 8.61893 5.77171 7.83518 6.3996 7.16706C6.78176 7.30935 7.19275 7.36799 7.60205 7.33863C8.01134 7.30926 8.40841 7.19265 8.76373 6.99745C9.11914 6.80288 9.42385 6.53476 9.65525 6.213C9.88665 5.89125 10.0388 5.52346 10.1004 5.1382ZM11.5 13.4499C12.0443 13.4499 12.5663 13.2445 12.9511 12.8789C13.336 12.5133 13.5522 12.0174 13.5522 11.5003C13.5522 10.9833 13.336 10.4874 12.9511 10.1218C12.5663 9.75615 12.0443 9.55074 11.5 9.55074C10.9557 9.55074 10.4337 9.75615 10.0489 10.1218C9.66401 10.4874 9.4478 10.9833 9.4478 11.5003C9.4478 12.0174 9.66401 12.5133 10.0489 12.8789C10.4337 13.2445 10.9557 13.4499 11.5 13.4499Z" fill="#3F9D80"/>
</g>
<defs>
<clipPath id="clip0_111_146">
<rect width="24" height="24" rx="10" fill="white"/>
</clipPath>
</defs>
</svg>
