<svg width="20" height="20" viewBox="0 0 20 20" fill="none" xmlns="http://www.w3.org/2000/svg">
<path d="M19.6983 12.4182C18.3642 17.7823 12.9306 21.0342 7.58029 19.7001C2.23002 18.366 -1.03573 12.9324 0.298362 7.58208C1.63246 2.21791 7.06611 -1.03394 12.4164 0.300151C17.7806 1.62035 21.0324 7.054 19.6983 12.4182Z" fill="#F7931A"/>
<path d="M14.4036 8.5691C14.5981 7.23501 13.5837 6.52627 12.2079 6.03988L12.6526 4.2333L11.5547 3.95536L11.1239 5.70636C10.8321 5.63688 10.5403 5.56739 10.2484 5.49791L10.6931 3.73301L9.59529 3.45508L9.1506 5.26166C8.91435 5.20608 8.67811 5.15049 8.45576 5.0949L6.94101 4.71969L6.64917 5.88702C6.64917 5.88702 7.46908 6.06768 7.44129 6.08158C7.88599 6.19275 7.96937 6.48458 7.95547 6.72083L7.44129 8.77756C7.46908 8.79145 7.51077 8.79145 7.55246 8.81925C7.51077 8.80535 7.48298 8.80535 7.44129 8.79145L6.71866 11.6681C6.66307 11.8071 6.5241 12.0016 6.21837 11.9321C6.23227 11.946 5.42625 11.7376 5.42625 11.7376L4.88428 12.9883L6.31565 13.3496C6.57969 13.4191 6.84373 13.4886 7.09387 13.5581L6.63528 15.3785L7.73312 15.6565L8.17782 13.8499C8.48355 13.9333 8.76149 14.0028 9.05332 14.0722L8.60862 15.8649L9.70647 16.1429L10.1651 14.3224C12.0411 14.6698 13.4447 14.5308 14.0423 12.8354C14.5148 11.4735 14.0145 10.6814 13.0278 10.1672C13.7226 10.0144 14.2646 9.54188 14.4036 8.5691ZM11.9022 12.085C11.5686 13.4469 9.26177 12.7104 8.52524 12.5297L9.1228 10.1116C9.87323 10.2923 12.2496 10.6675 11.9022 12.085ZM12.2357 8.55521C11.93 9.79202 10.0122 9.16667 9.40074 9.0138L9.94272 6.81811C10.5681 6.97097 12.5692 7.2628 12.2357 8.55521Z" fill="white"/>
</svg>
