<svg width="99" height="99" viewBox="0 0 99 99" fill="none" xmlns="http://www.w3.org/2000/svg">
<path d="M17.3859 22.3075V57.0954L9.8067 52.7216V26.6326L2.22754 22.2588V13.5598L17.3859 22.3075Z" stroke="white" stroke-width="0.786885" stroke-linecap="round" stroke-linejoin="round"/>
<path d="M33.6154 14.1927L25.5412 18.2339L17.3859 22.3075L2.22754 13.5598L18.457 5.44498L33.6154 14.1927Z" stroke="white" stroke-width="0.786885" stroke-linecap="round" stroke-linejoin="round"/>
<path d="M27.4889 28.142V36.841L32.8689 39.9489L27.4889 42.6349V52.048L17.386 57.0954V22.3075L25.5413 18.2339L33.6155 14.1927V25.0827L27.4889 28.142Z" fill="#CCFBE5" stroke="white" stroke-width="0.786885" stroke-linecap="round" stroke-linejoin="round"/>
<path d="M35.0679 52.8107V58.6047L50.2263 67.3605V76.0595L27.4888 62.9298V42.6348L33.6154 46.1729L42.6471 51.3906V45.5886L33.6154 40.3789L32.8689 39.9488L27.4888 36.8409V28.1419L33.6154 31.6799L40.943 35.9077L43.7183 37.5144L50.2263 41.2716V61.5584L40.448 55.9187L35.0679 52.8107Z" stroke="white" stroke-width="0.786885" stroke-linecap="round" stroke-linejoin="round"/>
<path d="M66.4558 33.1568L58.3898 37.1898L53.0016 39.8839L50.2263 41.2716L43.7183 37.5144L40.943 35.9077L33.6154 31.6799L27.4888 28.1419L33.6154 25.0826L43.7183 20.0271L66.4558 33.1568Z" stroke="white" stroke-width="0.786885" stroke-linecap="round" stroke-linejoin="round"/>
<path d="M96.7724 50.6604L88.7063 54.6934L83.3181 57.3875L80.5432 58.7752L79.0907 57.9393L76.3154 56.3326L66.456 50.6442L57.8057 45.6455L66.456 41.3203L74.0352 37.5307L96.7724 50.6604Z" stroke="white" stroke-width="0.786885" stroke-linecap="round" stroke-linejoin="round"/>
<path d="M80.5432 58.7752V93.555L57.8057 80.4335V71.7344L58.3007 72.0185L72.964 80.4821V74.6882L63.6889 69.3325L63.1858 69.0403L62.8612 68.8537V63.0598L66.456 65.1371L68.5658 66.3544L72.964 68.8943V63.0922L68.2412 60.3657L66.456 59.3351L66.3748 59.2864L60.9867 56.1785L57.8057 54.3445V45.6455L66.456 50.6442L76.3154 56.3326L79.0907 57.9394L80.5432 58.7752Z" stroke="white" stroke-width="0.786885" stroke-linecap="round" stroke-linejoin="round"/>
<path d="M62.861 63.0598V68.8538L63.1856 69.0404L57.8055 71.7345V72.2701L50.2263 76.0597V67.3607L58.3816 63.2789L66.3747 59.2865L66.4558 59.3352V61.2665L62.861 63.0598Z" fill="#CCFBE5" stroke="white" stroke-width="0.786885" stroke-linecap="round" stroke-linejoin="round"/>
<path d="M42.6471 45.5887V51.3907L33.6154 46.173L27.4888 42.6349L32.8689 39.9489L33.6154 40.379L42.6471 45.5887Z" fill="#CCFBE5" stroke="white" stroke-width="0.786885" stroke-linecap="round" stroke-linejoin="round"/>
<path d="M40.4482 55.9189L35.0681 58.6048V52.8109L40.4482 55.9189Z" fill="#CCFBE5" stroke="white" stroke-width="0.786885" stroke-linecap="round" stroke-linejoin="round"/>
<path d="M66.3748 59.2863L58.3818 63.2788L50.2265 67.3605L35.0681 58.6047L40.4482 55.9187L50.2265 61.5585L52.9936 60.1708L60.9866 56.1784L66.3748 59.2863Z" stroke="white" stroke-width="0.786885" stroke-linecap="round" stroke-linejoin="round"/>
<path d="M57.8055 45.6454V54.3444L60.9865 56.1784L52.9934 60.1708L50.2263 61.5584V41.2716L53.0016 39.8839L58.3898 37.1898L66.4558 33.1568V41.3202L57.8055 45.6454Z" fill="#CCFBE5" stroke="white" stroke-width="0.786885" stroke-linecap="round" stroke-linejoin="round"/>
<path d="M96.7726 50.6603V85.4403L80.543 93.555V58.7751L83.3183 57.3875L88.7065 54.6934L96.7726 50.6603Z" fill="#CCFBE5" stroke="white" stroke-width="0.786885" stroke-linecap="round" stroke-linejoin="round"/>
<path d="M72.964 74.6883V80.4822L58.3007 72.0185L57.8057 71.7345L63.1858 69.0404L63.6889 69.3325L72.964 74.6883Z" fill="#CCFBE5" stroke="white" stroke-width="0.786885" stroke-linecap="round" stroke-linejoin="round"/>
<path d="M72.964 63.0921V68.8942L68.5658 66.3543L66.4559 65.137L62.8611 63.0597L66.4559 61.2663L68.2412 60.3656L72.964 63.0921Z" fill="#CCFBE5" stroke="white" stroke-width="0.786885" stroke-linecap="round" stroke-linejoin="round"/>
</svg>
