<svg width="350" height="350" viewBox="0 0 350 350" fill="none" xmlns="http://www.w3.org/2000/svg">
<path d="M89.4123 118.809V202.55L68.5747 190.527V106.754L89.4123 118.809Z" fill="#CCFBE5" stroke="#007352" stroke-width="3.7037" stroke-linecap="round" stroke-linejoin="round"/>
<path d="M151.99 154.911V238.684L131.12 226.629V142.888L133.389 144.184L151.99 154.911Z" fill="#CCFBE5" stroke="#007352" stroke-width="3.7037" stroke-linecap="round" stroke-linejoin="round"/>
<path d="M245.811 316.786V340.735L37.2686 220.309V196.392L245.811 316.786Z" fill="#CCFBE5" stroke="#007352" stroke-width="3.7037" stroke-linecap="round" stroke-linejoin="round"/>
<path d="M310.625 284.378L245.811 316.786L37.2686 196.392L68.5748 180.739V190.526L89.4124 202.55L109.797 192.341L131.121 181.712V226.628L151.991 238.684L172.376 228.508L193.699 217.846V262.763L214.538 274.818L234.921 264.61L257.153 253.494L310.625 284.378Z" fill="#CCFBE5" stroke="#007352" stroke-width="3.7037" stroke-linecap="round" stroke-linejoin="round"/>
<path d="M310.624 284.378V308.327L245.809 340.735V316.786L310.624 284.378Z" fill="#CCFBE5" stroke="#007352" stroke-width="3.7037" stroke-linecap="round" stroke-linejoin="round"/>
<path d="M310.624 128.823V152.772L279.351 168.425L258.512 178.827L245.809 185.179V161.23L258.512 154.878L266.193 151.022L288.392 139.938L310.624 128.823Z" fill="#CCFBE5" stroke="#007352" stroke-width="3.7037" stroke-linecap="round" stroke-linejoin="round"/>
<path d="M310.624 128.823L288.392 139.939L266.193 151.022L258.512 154.879L245.809 161.231L240.786 155.462L216.805 127.851L213.564 124.124L207.503 117.157L165.86 69.1937L141.555 41.2261L206.37 8.81866L310.624 128.823Z" fill="#CCFBE5" stroke="#007352" stroke-width="3.7037" stroke-linecap="round" stroke-linejoin="round"/>
<path d="M206.371 8.81827L141.556 41.2258L117.251 41.1286L37.2686 40.8369L102.083 8.42938L206.371 8.81827Z" fill="#CCFBE5" stroke="#007352" stroke-width="3.7037" stroke-linecap="round" stroke-linejoin="round"/>
<path d="M245.811 161.23V185.18L236.736 179.93L216.806 168.425L215.866 167.906L195.936 156.401L174.157 143.828L154.227 132.323L153.32 131.772L133.39 120.267L111.612 107.693L90.7408 95.6702L37.2686 64.786V40.8369L117.251 41.1286L141.556 41.2258L165.862 69.1934L207.505 117.156L213.565 124.124L216.806 127.85L240.787 155.462L245.811 161.23Z" fill="#CCFBE5" stroke="#007352" stroke-width="3.7037" stroke-linecap="round" stroke-linejoin="round"/>
<path d="M279.352 168.425V242.411L257.153 253.495L234.921 264.61L214.538 274.819V191.046L216.806 189.911L236.736 179.93L245.81 185.18L258.514 178.828L279.352 168.425Z" fill="#CCFBE5" stroke="#007352" stroke-width="3.7037" stroke-linecap="round" stroke-linejoin="round"/>
<path d="M236.735 179.929L216.805 189.911L214.536 191.045L195.934 180.286L193.698 178.989L195.934 177.887L215.864 167.906L216.805 168.425L236.735 179.929Z" fill="#CCFBE5" stroke="#007352" stroke-width="3.7037" stroke-linecap="round" stroke-linejoin="round"/>
<path d="M174.156 143.828L154.226 153.809L151.99 154.911L133.389 144.184L131.12 142.888L133.389 141.754L153.319 131.772L154.226 132.323L174.156 143.828Z" fill="#CCFBE5" stroke="#007352" stroke-width="3.7037" stroke-linecap="round" stroke-linejoin="round"/>
<path d="M195.936 156.402V177.888L193.7 178.99V217.846L172.376 228.508L151.992 238.684V154.911L154.228 153.809L174.158 143.828L195.936 156.402Z" fill="#CCFBE5" stroke="#007352" stroke-width="3.7037" stroke-linecap="round" stroke-linejoin="round"/>
<path d="M214.536 191.045V274.818L193.698 262.762V178.989L195.934 180.286L214.536 191.045Z" fill="#CCFBE5" stroke="#007352" stroke-width="3.7037" stroke-linecap="round" stroke-linejoin="round"/>
<path d="M111.612 107.693L89.4123 118.809L68.5747 106.753L90.7407 95.6699L111.612 107.693Z" fill="#CCFBE5" stroke="#007352" stroke-width="3.7037" stroke-linecap="round" stroke-linejoin="round"/>
<path d="M133.389 120.267V141.753L131.12 142.888V181.712L109.796 192.341L89.4114 202.55V118.809L111.611 107.693L133.389 120.267Z" fill="#CCFBE5" stroke="#007352" stroke-width="3.7037" stroke-linecap="round" stroke-linejoin="round"/>
<path d="M89.4123 118.809V202.55L68.5747 190.527V106.754L89.4123 118.809Z" fill="#CCFBE5" stroke="#007352" stroke-width="3.7037" stroke-linecap="round" stroke-linejoin="round"/>
<path d="M151.99 154.911V238.684L131.12 226.629V142.888L133.389 144.184L151.99 154.911Z" fill="#CCFBE5" stroke="#007352" stroke-width="3.7037" stroke-linecap="round" stroke-linejoin="round"/>
<path d="M245.811 316.786V340.735L37.2686 220.309V196.392L245.811 316.786Z" fill="#CCFBE5" stroke="#007352" stroke-width="3.7037" stroke-linecap="round" stroke-linejoin="round"/>
<path d="M310.625 284.378L245.811 316.786L37.2686 196.392L68.5748 180.739V190.526L89.4124 202.55L109.797 192.341L131.121 181.712V226.628L151.991 238.684L172.376 228.508L193.699 217.846V262.763L214.538 274.818L234.921 264.61L257.153 253.494L310.625 284.378Z" fill="#CCFBE5" stroke="#007352" stroke-width="3.7037" stroke-linecap="round" stroke-linejoin="round"/>
<path d="M310.624 284.378V308.327L245.809 340.735V316.786L310.624 284.378Z" fill="#CCFBE5" stroke="#007352" stroke-width="3.7037" stroke-linecap="round" stroke-linejoin="round"/>
<path d="M310.624 128.823V152.772L279.351 168.425L258.512 178.827L245.809 185.179V161.23L258.512 154.878L266.193 151.022L288.392 139.938L310.624 128.823Z" fill="#CCFBE5" stroke="#007352" stroke-width="3.7037" stroke-linecap="round" stroke-linejoin="round"/>
<path d="M310.624 128.823L288.392 139.939L266.193 151.022L258.512 154.879L245.809 161.231L240.786 155.462L216.805 127.851L213.564 124.124L207.503 117.157L165.86 69.1937L141.555 41.2261L206.37 8.81866L310.624 128.823Z" fill="#CCFBE5" stroke="#007352" stroke-width="3.7037" stroke-linecap="round" stroke-linejoin="round"/>
<path d="M206.371 8.81827L141.556 41.2258L117.251 41.1286L37.2686 40.8369L102.083 8.42938L206.371 8.81827Z" fill="#CCFBE5" stroke="#007352" stroke-width="3.7037" stroke-linecap="round" stroke-linejoin="round"/>
<path d="M245.811 161.23V185.18L236.736 179.93L216.806 168.425L215.866 167.906L195.936 156.401L174.157 143.828L154.227 132.323L153.32 131.772L133.39 120.267L111.612 107.693L90.7408 95.6702L37.2686 64.786V40.8369L117.251 41.1286L141.556 41.2258L165.862 69.1934L207.505 117.156L213.565 124.124L216.806 127.85L240.787 155.462L245.811 161.23Z" fill="#CCFBE5" stroke="#007352" stroke-width="3.7037" stroke-linecap="round" stroke-linejoin="round"/>
<path d="M279.352 168.425V242.411L257.153 253.495L234.921 264.61L214.538 274.819V191.046L216.806 189.911L236.736 179.93L245.81 185.18L258.514 178.828L279.352 168.425Z" fill="#CCFBE5" stroke="#007352" stroke-width="3.7037" stroke-linecap="round" stroke-linejoin="round"/>
<path d="M236.735 179.929L216.805 189.911L214.536 191.045L195.934 180.286L193.698 178.989L195.934 177.887L215.864 167.906L216.805 168.425L236.735 179.929Z" fill="#CCFBE5" stroke="#007352" stroke-width="3.7037" stroke-linecap="round" stroke-linejoin="round"/>
<path d="M174.156 143.828L154.226 153.809L151.99 154.911L133.389 144.184L131.12 142.888L133.389 141.754L153.319 131.772L154.226 132.323L174.156 143.828Z" fill="#CCFBE5" stroke="#007352" stroke-width="3.7037" stroke-linecap="round" stroke-linejoin="round"/>
<path d="M195.936 156.402V177.888L193.7 178.99V217.846L172.376 228.508L151.992 238.684V154.911L154.228 153.809L174.158 143.828L195.936 156.402Z" fill="#CCFBE5" stroke="#007352" stroke-width="3.7037" stroke-linecap="round" stroke-linejoin="round"/>
<path d="M214.536 191.045V274.818L193.698 262.762V178.989L195.934 180.286L214.536 191.045Z" fill="#CCFBE5" stroke="#007352" stroke-width="3.7037" stroke-linecap="round" stroke-linejoin="round"/>
<path d="M111.612 107.693L89.4123 118.809L68.5747 106.753L90.7407 95.6699L111.612 107.693Z" fill="#CCFBE5" stroke="#007352" stroke-width="3.7037" stroke-linecap="round" stroke-linejoin="round"/>
<path d="M133.389 120.267V141.753L131.12 142.888V181.712L109.796 192.341L89.4114 202.55V118.809L111.611 107.693L133.389 120.267Z" fill="#CCFBE5" stroke="#007352" stroke-width="3.7037" stroke-linecap="round" stroke-linejoin="round"/>
</svg>
