<svg width="55" height="35" viewBox="0 0 55 35" fill="none" xmlns="http://www.w3.org/2000/svg">
<g clip-path="url(#clip0_96_269)">
<path d="M37.6689 15.0355C37.6689 15.4684 38.1394 15.7164 38.4979 15.4774C38.4979 15.4774 38.5023 15.4774 38.5068 15.4729C40.2767 14.2778 42.3064 13.4345 44.5423 12.961C44.7663 12.9114 44.941 12.7265 44.9634 12.4965C45.3801 8.26184 44.8828 4.43759 44.5288 2.4488C44.5154 2.37665 44.4795 2.31802 44.4302 2.28194C44.3765 2.24587 44.3137 2.24136 44.2555 2.2639C42.6245 2.89076 39.5732 4.28426 36.6608 6.78265C36.4995 6.91794 36.4412 7.14343 36.504 7.34637C37.2836 9.90338 37.6779 12.4379 37.6779 14.8911C37.6779 14.9408 37.6779 14.9904 37.6779 15.0445L37.6689 15.0355Z" fill="#FFD700"/>
<path d="M16.9413 15.9239C16.9413 15.9239 16.9458 15.9239 16.9503 15.9284C17.3087 16.1674 17.7792 15.9194 17.7792 15.4864C17.7792 15.4368 17.7792 15.3872 17.7792 15.3376C17.7792 12.8888 18.1735 10.3544 18.9531 7.79284C19.0158 7.5899 18.9531 7.36892 18.7963 7.22912C15.8839 4.73073 12.8325 3.33723 11.2016 2.71037C11.1433 2.68332 11.0806 2.69234 11.0268 2.72841C10.9731 2.76449 10.9372 2.82763 10.9283 2.89527C10.5743 4.87955 10.0769 8.70831 10.4936 12.9429C10.516 13.1729 10.6908 13.3578 10.9148 13.4074C13.1507 13.881 15.1759 14.7243 16.9458 15.9194L16.9413 15.9239Z" fill="#FFD700"/>
<path d="M45.6893 32.2581C51.4201 28.3888 54.104 20.6636 54.9911 17.5248C55.0091 17.4572 55.0046 17.3805 54.9732 17.3219C54.9463 17.2588 54.8926 17.2137 54.8298 17.2001C52.0563 16.5282 44.9858 15.3782 39.2551 19.2385L39.2372 19.2521C38.1349 20.0007 37.3687 21.1507 37.082 22.4585C36.0873 26.9998 34.0306 30.8421 32.44 33.3089C32.0412 33.9267 32.4266 34.752 33.1569 34.8332C36.5757 35.2255 41.4909 35.0812 45.6893 32.2536V32.2581Z" fill="#FFD700"/>
<path d="M15.745 19.243C12.5772 17.1054 9.00161 16.5056 5.96821 16.5056C4.01912 16.5101 2.079 16.7446 0.170244 17.2046C0.111996 17.2182 0.0582279 17.2587 0.031344 17.3264C-2.05579e-05 17.385 -0.00898186 17.4617 0.0134214 17.5293C0.90059 20.6726 3.58002 28.3978 9.31525 32.2626C13.5091 35.0947 18.4244 35.2345 21.8432 34.8422C22.5735 34.7565 22.9633 33.9312 22.5601 33.3089C20.9605 30.8195 18.8814 26.9321 17.8957 22.3457C17.6313 21.1146 16.901 20.0322 15.866 19.3287L15.745 19.2475V19.243Z" fill="#FFD700"/>
<path d="M27.6545 0.0856848C27.6142 0.0315681 27.5604 0 27.4977 0C27.435 0 27.3812 0.0315681 27.3409 0.0856848C25.4545 2.59309 21.0635 9.28102 21.0635 17.1415C21.0635 25.0019 25.4545 31.6899 27.3409 34.1973C27.3812 34.2514 27.435 34.283 27.4977 34.283C27.5604 34.283 27.6142 34.2514 27.6545 34.1973C29.5409 31.6899 33.9319 25.0019 33.9319 17.1415C33.9319 9.28102 29.5409 2.5976 27.6545 0.0856848Z" fill="white"/>
</g>
<defs>
<clipPath id="clip0_96_269">
<rect width="55" height="35" fill="white"/>
</clipPath>
</defs>
</svg>
