<svg width="24" height="24" viewBox="0 0 24 24" fill="none" xmlns="http://www.w3.org/2000/svg">
<path d="M9 20C8.68334 20 8.4 19.9083 8.15 19.725C7.9 19.5417 7.71667 19.3083 7.6 19.025L5.3 13H2C1.71667 13 1.47934 12.904 1.288 12.712C1.09667 12.52 1.00067 12.2827 1 12C0.999337 11.7173 1.09534 11.48 1.288 11.288C1.48067 11.096 1.718 11 2 11H6C6.21667 11 6.40434 11.0583 6.563 11.175C6.72167 11.2917 6.84234 11.45 6.925 11.65L9 17.1L13.6 4.975C13.7167 4.69167 13.9 4.45833 14.15 4.275C14.4 4.09167 14.6833 4 15 4C15.3167 4 15.6 4.09167 15.85 4.275C16.1 4.45833 16.2833 4.69167 16.4 4.975L18.7 11H22C22.2833 11 22.521 11.096 22.713 11.288C22.905 11.48 23.0007 11.7173 23 12C22.9993 12.2827 22.9033 12.5203 22.712 12.713C22.5207 12.9057 22.2833 13.0013 22 13H18C17.7833 13 17.596 12.9417 17.438 12.825C17.28 12.7083 17.159 12.55 17.075 12.35L15 6.9L10.4 19.025C10.2833 19.3083 10.1 19.5417 9.85 19.725C9.6 19.9083 9.31667 20 9 20Z" fill="white"/>
</svg>
